HIERARCHY
ROOT SpineBase
{
  OFFSET 0.000000 0.000000 0.000000
  CHANNELS 6 Xposition Yposition Zposition Zrotation Xrotation Yrotation
  JOINT SpineMid
  {
    OFFSET -0.000000 27.094921 0.000000
    CHANNELS 3 Zrotation Xrotation Yrotation
    JOINT SpineShoulder
    {
      OFFSET -0.116644 20.143183 -0.567738
      CHANNELS 3 Zrotation Xrotation Yrotation
      JOINT Neck
      {
        OFFSET -0.147063 6.654062 -0.435138
        CHANNELS 3 Zrotation Xrotation Yrotation
        JOINT Head
        {
          OFFSET -1.302915 11.236854 1.843159
          CHANNELS 3 Zrotation Xrotation Yrotation
          End Site
          {
            OFFSET 0 0 0
          }
        }
      }
      JOINT ShoulderLeft
      {
        OFFSET -7.475513 -4.501446 14.044303
        CHANNELS 3 Zrotation Xrotation Yrotation
        JOINT ElbowLeft
        {
          OFFSET -0.595832 -22.360799 -11.679337
          CHANNELS 3 Zrotation Xrotation Yrotation
          JOINT WristLeft
          {
            OFFSET 0.594022 -21.277116 14.493584
            CHANNELS 3 Zrotation Xrotation Yrotation
            JOINT HandLeft
            {
              OFFSET -0.504665 -11.631690 1.924637
              CHANNELS 3 Zrotation Xrotation Yrotation
              JOINT HandTipLeft
              {
                OFFSET -0.596427 -1.133554 0.575794
                CHANNELS 3 Zrotation Xrotation Yrotation
                End Site
                {
                  OFFSET 0 0 0
                }
              }
              JOINT ThumbLeft
              {
                OFFSET 0.013273 0.593573 -2.694397
                CHANNELS 3 Zrotation Xrotation Yrotation
                End Site
                {
                  OFFSET 0 0 0
                }
              }
            }
          }
        }
      }
      JOINT ShoulderRight
      {
        OFFSET 3.474702 -3.765196 -13.655842
        CHANNELS 3 Zrotation Xrotation Yrotation
        JOINT ElbowRight
        {
          OFFSET 3.179366 -22.976413 -3.419901
          CHANNELS 3 Zrotation Xrotation Yrotation
          JOINT WristRight
          {
            OFFSET -4.746258 -21.430309 -3.363468
            CHANNELS 3 Zrotation Xrotation Yrotation
            JOINT HandRight
            {
              OFFSET -0.995922 -6.927560 1.172222
              CHANNELS 3 Zrotation Xrotation Yrotation
              JOINT HandTipRight
              {
                OFFSET -1.682896 -6.721256 -0.046834
                CHANNELS 3 Zrotation Xrotation Yrotation
                End Site
                {
                  OFFSET 0 0 0
                }
              }
              JOINT ThumbRight
              {
                OFFSET 2.290519 -1.739999 -1.463699
                CHANNELS 3 Zrotation Xrotation Yrotation
                End Site
                {
                  OFFSET 0 0 0
                }
              }
            }
          }
        }
      }
    }
  }
  JOINT HipLeft
  {
    OFFSET -2.981257 0.831275 1.960247
    CHANNELS 3 Zrotation Xrotation Yrotation
    JOINT KneeLeft
    {
      OFFSET -2.736083 -23.396014 6.978617
      CHANNELS 3 Zrotation Xrotation Yrotation
      JOINT AnkleLeft
      {
        OFFSET 21.105129 -42.571053 2.885905
        CHANNELS 3 Zrotation Xrotation Yrotation
        JOINT FootLeft
        {
          OFFSET 1.962831 -6.990702 -5.415136
          CHANNELS 3 Zrotation Xrotation Yrotation
          End Site
          {
            OFFSET 0 0 0
          }
        }
      }
    }
  }
  JOINT HipRight
  {
    OFFSET 1.855377 0.599213 -8.109194
    CHANNELS 3 Zrotation Xrotation Yrotation
    JOINT KneeRight
    {
      OFFSET 9.875612 -32.647533 1.675424
      CHANNELS 3 Zrotation Xrotation Yrotation
      JOINT AnkleRight
      {
        OFFSET 9.367340 -35.542072 7.322312
        CHANNELS 3 Zrotation Xrotation Yrotation
        JOINT FootRight
        {
          OFFSET -3.395647 -7.269525 2.030359
          CHANNELS 3 Zrotation Xrotation Yrotation
          End Site
          {
            OFFSET 0 0 0
          }
        }
      }
    }
  }
}
MOTION
Frames: 6
Frame Time: 0.033333
60.023859 73.845928 326.346994 0.305671 0.013172 62.336362 -0.153584 0.264613 -62.336042 -0.000000 0.000000 0.000000 3.053079 3.718567 -0.167314 0.000000 0.000000 0.000000 -0.000000 0.000000 0.000000 -90.342373 68.002238 2.715900 25.705562 -80.776465 -3.012664 14.507295 23.776228 -4.643524 0.000000 0.000000 0.000000 0.000000 0.000000 0.000000 -26.135302 5.352184 6.090987 -48.184604 -24.091336 -8.417424 -0.596549 15.415191 -17.234718 1.507606 5.148272 15.322005 0.000000 0.000000 0.000000 0.000000 0.000000 0.000000 -11.528208 -7.598111 -61.003595 -4.111530 18.121017 0.839503 -6.000578 8.151383 8.322312 0.000000 0.000000 0.000000 -1.574258 1.940742 -62.565173 4.888003 3.152689 1.425284 -2.498918 -0.063940 -2.441629 0.000000 0.000000 0.000000
60.024313 73.820495 326.262804 0.222791 0.179897 63.330073 -0.260756 0.118341 -63.330153 -0.000000 0.000000 0.000000 2.768541 3.802397 -0.104215 0.000000 0.000000 0.000000 3.156893 -0.643925 -1.620239 -90.066985 65.060917 0.919749 13.576792 -73.282145 -8.300091 16.299275 16.865168 -7.971704 0.000000 0.000000 0.000000 0.000000 0.000000 0.000000 -26.561332 6.182319 6.495973 -42.043744 -25.829885 -9.094781 -4.989735 16.204168 -14.885931 3.547264 4.213819 14.057101 0.000000 0.000000 0.000000 0.000000 0.000000 0.000000 -12.293433 -6.884940 -62.201983 -3.245464 17.993580 0.817358 0.084113 5.839411 2.993124 0.000000 0.000000 0.000000 -1.711260 1.540512 -63.608107 4.652750 3.374524 1.465546 -4.715637 -1.167983 -2.602239 0.000000 0.000000 0.000000
60.007538 73.797869 326.168925 0.095252 0.359854 64.338897 -0.365611 -0.069975 -64.339420 -1.048108 0.239029 -0.061094 3.413594 3.653186 0.057218 0.000000 0.000000 0.000000 3.444839 -0.734093 -1.155889 -81.271918 63.450983 -2.980645 -2.039827 -63.250689 -14.696319 21.452599 10.710260 -10.946902 0.000000 0.000000 0.000000 0.000000 0.000000 0.000000 -26.082338 6.700820 6.865430 -37.683827 -27.712431 -9.868859 -8.319625 18.004385 -12.579798 5.216018 5.219266 13.669692 0.000000 0.000000 0.000000 0.000000 0.000000 0.000000 -13.425085 -6.117713 -63.459100 -2.100332 18.255749 0.834754 1.792176 1.953287 0.571088 0.000000 0.000000 0.000000 -1.945015 0.741268 -64.728461 3.925426 3.953896 1.548474 -11.625272 -4.457781 -3.459931 0.000000 0.000000 0.000000
59.958674 73.771915 326.119758 -0.068668 0.501018 65.068042 -0.425384 -0.273467 -65.068757 -1.317847 0.483713 -0.069967 3.047170 3.238371 0.185470 0.000000 0.000000 0.000000 -0.272880 -0.212447 0.893899 -68.166877 62.958032 -8.812705 -9.027597 -52.954600 -13.027265 26.101184 7.340309 -12.533518 0.000000 0.000000 0.000000 0.000000 0.000000 0.000000 -26.196834 7.390708 7.207989 -35.642559 -28.764977 -10.642278 -11.360999 17.943885 -11.586362 7.890984 4.976331 13.223688 0.000000 0.000000 0.000000 0.000000 0.000000 0.000000 -15.670105 -5.540989 -64.488882 -0.633360 19.993136 0.983507 -0.180095 1.331865 1.770340 0.000000 0.000000 0.000000 -1.945610 0.127273 -65.489051 3.388615 4.124128 1.554640 -16.594036 -7.350891 -4.051985 0.000000 0.000000 0.000000
59.872382 73.800489 326.135611 -0.272084 0.565110 65.454054 -0.239970 0.375800 -65.471455 -0.830874 0.169064 -0.070368 2.427133 2.799142 0.334032 0.000000 0.000000 0.000000 -7.159058 0.661147 4.574302 -50.389076 62.751679 -18.060719 -13.558272 -43.886888 -10.038234 33.303532 4.378254 -11.469333 0.000000 0.000000 0.000000 0.000000 0.000000 0.000000 -26.253122 7.960102 7.487958 -39.973966 -28.773620 -12.172994 -3.177003 19.072609 -13.420012 4.256759 -1.694704 11.250497 0.000000 0.000000 0.000000 0.000000 0.000000 0.000000 -17.892517 -4.166003 -65.307113 1.887195 21.358857 1.091766 5.097844 0.983224 -2.377917 0.000000 0.000000 0.000000 -1.764883 -0.083149 -65.834727 3.450994 3.946279 1.528554 -16.986606 -10.333327 -3.140983 0.000000 0.000000 0.000000
59.773612 73.826272 326.131968 -0.464242 0.652433 65.834626 -0.097582 0.379558 -65.853403 -0.842134 0.203098 -0.072856 1.605450 1.976168 0.452897 0.000000 0.000000 0.000000 -16.891568 1.138203 9.720677 -29.341146 62.846791 -30.197803 -10.891168 -37.766798 -2.339135 36.877734 1.058302 -9.696093 0.000000 0.000000 0.000000 0.000000 0.000000 0.000000 -26.312006 8.210413 7.615066 -46.465365 -27.535867 -13.445185 3.545604 17.834665 -16.308344 0.135737 -3.027134 11.442560 0.000000 0.000000 0.000000 0.000000 0.000000 0.000000 -15.478941 -4.855616 -65.483562 0.306200 19.032720 0.894468 5.445199 3.229506 -1.952204 0.000000 0.000000 0.000000 -1.409144 -0.553132 -66.133189 2.893153 3.484331 1.370446 -20.464608 -11.160776 -3.951059 0.000000 0.000000 0.000000
